
<global>
amp_veltrack=0
</global>

<group>
ampeg_release=0.35
group_label=RR1_0-25
seq_length=2
seq_position=1
xfout_hicc1=50
xfout_locc1=25

<region>
hivel=127
key=D3
loop_end=240359
loop_start=28758
loop_xfade=6129
lovel=0
sample=BassDrum_Hard_Roll_P_D4_RR1.opus
volume=8
</region>
</group>

<group>
ampeg_release=0.35
group_label=RR1_78-103
seq_length=2
seq_position=1
xfin_hicc1=103
xfin_locc1=78
xfout_hicc1=127
xfout_locc1=103

<region>
hivel=127
key=D3
loop_end=191283
loop_start=9975
loop_xfade=3579
lovel=0
sample=BassDrum_Hard_Roll_F_D4_RR1.opus
</region>
</group>

<group>
ampeg_release=0.35
group_label=RR1_104-127
seq_length=2
seq_position=1
xfin_hicc1=127
xfin_locc1=104
xfout_hicc1=127
xfout_locc1=127

<region>
hivel=127
key=D3
loop_end=198209
loop_start=20853
loop_xfade=7275
lovel=0
sample=BassDrum_Hard_Roll_FF_D4_RR1.opus
</region>
</group>

<group>
ampeg_release=0.35
group_label=RR1_52-77
seq_length=2
seq_position=1
xfin_hicc1=77
xfin_locc1=52
xfout_hicc1=102
xfout_locc1=77

<region>
hivel=127
key=D3
loop_end=209885
loop_start=26609
loop_xfade=8189
lovel=0
sample=BassDrum_Hard_Roll_MF_D4_RR1.opus
</region>
</group>

<group>
ampeg_release=0.35
group_label=RR1_26-51
seq_length=2
seq_position=1
xfin_hicc1=51
xfin_locc1=26
xfout_hicc1=76
xfout_locc1=51

<region>
hivel=127
key=D3
loop_end=213500
loop_start=33321
loop_xfade=7014
lovel=0
sample=BassDrum_Hard_Roll_MP_D4_RR1.opus
volume=8
</region>
</group>

<group>
ampeg_release=0.35
group_label=RR2_26-51
seq_length=2
seq_position=2
xfin_hicc1=51
xfin_locc1=26
xfout_hicc1=76
xfout_locc1=51

<region>
hivel=127
key=D3
loop_end=202450
loop_start=38278
loop_xfade=8824
lovel=0
sample=BassDrum_Hard_Roll_MP_D4_RR2.opus
volume=8
</region>
</group>

<group>
ampeg_release=0.35
group_label=RR2_104-127
seq_length=2
seq_position=2
xfin_hicc1=127
xfin_locc1=104
xfout_hicc1=127
xfout_locc1=127

<region>
hivel=127
key=D3
loop_end=194401
loop_start=22662
loop_xfade=6531
lovel=0
sample=BassDrum_Hard_Roll_FF_D4_RR2.opus
</region>
</group>

<group>
ampeg_release=0.35
group_label=RR2_52-77
seq_length=2
seq_position=2
xfin_hicc1=77
xfin_locc1=52
xfout_hicc1=102
xfout_locc1=77

<region>
hivel=127
key=D3
loop_end=199555
loop_start=33987
loop_xfade=5522
lovel=0
sample=BassDrum_Hard_Roll_MF_D4_RR2.opus
</region>
</group>

<group>
ampeg_release=0.35
group_label=RR2_78-103
seq_length=2
seq_position=2
xfin_hicc1=103
xfin_locc1=78
xfout_hicc1=127
xfout_locc1=103

<region>
hivel=127
key=D3
loop_end=200493
loop_start=28331
loop_xfade=9023
lovel=0
sample=BassDrum_Hard_Roll_F_D4_RR2.opus
</region>
</group>

<group>
ampeg_release=0.35
group_label=RR2_0-25
seq_length=2
seq_position=2
xfout_hicc1=50
xfout_locc1=25

<region>
hivel=127
key=D3
loop_end=244288
loop_start=30108
loop_xfade=6448
lovel=0
offset=18231
sample=BassDrum_Hard_Roll_P_D4_RR2.opus
volume=8
</region>
</group>

<group>
ampeg_attack=0.02
ampeg_release=8.5
group_label=Release_78-103
trigger=release
xfin_hicc1=103
xfin_locc1=78
xfout_hicc1=127
xfout_locc1=103

<region>
hivel=127
key=D3
lovel=0
sample=BassDrum_Hard_Hit_F_D4_RR1.opus
</region>
</group>

<group>
ampeg_attack=0.02
ampeg_release=8.5
group_label=Release_104-127
trigger=release
xfin_hicc1=127
xfin_locc1=104
xfout_hicc1=127
xfout_locc1=127

<region>
hivel=127
key=D3
lovel=0
sample=BassDrum_Hard_Hit_FF_D4_RR1.opus
</region>
</group>

<group>
ampeg_attack=0.02
ampeg_release=8.5
group_label=Release_52-77
trigger=release
xfin_hicc1=77
xfin_locc1=52
xfout_hicc1=102
xfout_locc1=77

<region>
hivel=127
key=D3
lovel=0
sample=BassDrum_Hard_Hit_MF_D4_RR1.opus
</region>
</group>

<group>
ampeg_attack=0.02
ampeg_release=8.5
group_label=Release_26-51
trigger=release
xfin_hicc1=51
xfin_locc1=26
xfout_hicc1=76
xfout_locc1=51

<region>
hivel=127
key=D3
lovel=0
sample=BassDrum_Hard_Hit_MP_D4_RR1.opus
volume=8
</region>
</group>

<group>
ampeg_attack=0.02
ampeg_release=8.5
group_label=Release_0-25
trigger=release
xfout_hicc1=50
xfout_locc1=25

<region>
hivel=127
key=D3
lovel=0
offset=8726
sample=BassDrum_Hard_Hit_P_D4_RR1.opus
volume=8
</region>
</group>